<mxfile modified="2023-09-10T05:53:10.279Z" host="app.diagrams.net" agent="Mozilla/5.0 (Windows NT 10.0; Win64; x64; rv:109.0) Gecko/20100101 Firefox/117.0" etag="iSy7iYaVyfTuV4ApIj5H" version="21.7.4" type="github">
  <diagram id="Ht1M8jgEwFfnCIfOTk4-" name="Page-1">
    <mxGraphModel dx="1588" dy="932" grid="1" gridSize="10" guides="1" tooltips="1" connect="1" arrows="1" fold="1" page="1" pageScale="1" pageWidth="1169" pageHeight="827" math="0" shadow="0">
      <root>
        <mxCell id="0" />
        <mxCell id="1" parent="0" />
        <mxCell id="AE-93lYXujNDDO3oy2O7-27" style="edgeStyle=orthogonalEdgeStyle;rounded=0;orthogonalLoop=1;jettySize=auto;html=1;exitX=1;exitY=0.5;exitDx=0;exitDy=0;exitPerimeter=0;startArrow=classic;startFill=1;endArrow=none;endFill=0;" edge="1" parent="1" source="AE-93lYXujNDDO3oy2O7-3">
          <mxGeometry relative="1" as="geometry">
            <mxPoint x="1060" y="280" as="targetPoint" />
          </mxGeometry>
        </mxCell>
        <mxCell id="AE-93lYXujNDDO3oy2O7-3" value="" style="sketch=0;points=[[0,0,0],[0.25,0,0],[0.5,0,0],[0.75,0,0],[1,0,0],[0,1,0],[0.25,1,0],[0.5,1,0],[0.75,1,0],[1,1,0],[0,0.25,0],[0,0.5,0],[0,0.75,0],[1,0.25,0],[1,0.5,0],[1,0.75,0]];outlineConnect=0;fontColor=#232F3E;fillColor=#7AA116;strokeColor=#ffffff;dashed=0;verticalLabelPosition=bottom;verticalAlign=top;align=center;html=1;fontSize=12;fontStyle=0;aspect=fixed;shape=mxgraph.aws4.resourceIcon;resIcon=mxgraph.aws4.s3;" vertex="1" parent="1">
          <mxGeometry x="590" y="390" width="78" height="78" as="geometry" />
        </mxCell>
        <mxCell id="AE-93lYXujNDDO3oy2O7-26" style="edgeStyle=orthogonalEdgeStyle;rounded=0;orthogonalLoop=1;jettySize=auto;html=1;exitX=1;exitY=0.5;exitDx=0;exitDy=0;exitPerimeter=0;entryX=0;entryY=0.5;entryDx=0;entryDy=0;" edge="1" parent="1" source="AE-93lYXujNDDO3oy2O7-4" target="AE-93lYXujNDDO3oy2O7-17">
          <mxGeometry relative="1" as="geometry" />
        </mxCell>
        <mxCell id="AE-93lYXujNDDO3oy2O7-4" value="" style="sketch=0;points=[[0,0,0],[0.25,0,0],[0.5,0,0],[0.75,0,0],[1,0,0],[0,1,0],[0.25,1,0],[0.5,1,0],[0.75,1,0],[1,1,0],[0,0.25,0],[0,0.5,0],[0,0.75,0],[1,0.25,0],[1,0.5,0],[1,0.75,0]];outlineConnect=0;fontColor=#232F3E;fillColor=#C925D1;strokeColor=#ffffff;dashed=0;verticalLabelPosition=bottom;verticalAlign=top;align=center;html=1;fontSize=12;fontStyle=0;aspect=fixed;shape=mxgraph.aws4.resourceIcon;resIcon=mxgraph.aws4.dynamodb;" vertex="1" parent="1">
          <mxGeometry x="590" y="190" width="78" height="78" as="geometry" />
        </mxCell>
        <mxCell id="AE-93lYXujNDDO3oy2O7-8" style="edgeStyle=orthogonalEdgeStyle;rounded=0;orthogonalLoop=1;jettySize=auto;html=1;exitX=1;exitY=0.5;exitDx=0;exitDy=0;exitPerimeter=0;entryX=0;entryY=0.5;entryDx=0;entryDy=0;entryPerimeter=0;" edge="1" parent="1" source="AE-93lYXujNDDO3oy2O7-5" target="AE-93lYXujNDDO3oy2O7-4">
          <mxGeometry relative="1" as="geometry" />
        </mxCell>
        <mxCell id="AE-93lYXujNDDO3oy2O7-5" value="" style="sketch=0;points=[[0,0,0],[0.25,0,0],[0.5,0,0],[0.75,0,0],[1,0,0],[0,1,0],[0.25,1,0],[0.5,1,0],[0.75,1,0],[1,1,0],[0,0.25,0],[0,0.5,0],[0,0.75,0],[1,0.25,0],[1,0.5,0],[1,0.75,0]];outlineConnect=0;fontColor=#232F3E;fillColor=#ED7100;strokeColor=#ffffff;dashed=0;verticalLabelPosition=bottom;verticalAlign=top;align=center;html=1;fontSize=12;fontStyle=0;aspect=fixed;shape=mxgraph.aws4.resourceIcon;resIcon=mxgraph.aws4.lambda;" vertex="1" parent="1">
          <mxGeometry x="420" y="190" width="78" height="78" as="geometry" />
        </mxCell>
        <mxCell id="AE-93lYXujNDDO3oy2O7-7" style="edgeStyle=orthogonalEdgeStyle;rounded=0;orthogonalLoop=1;jettySize=auto;html=1;exitX=1;exitY=0.5;exitDx=0;exitDy=0;exitPerimeter=0;entryX=0;entryY=0.5;entryDx=0;entryDy=0;entryPerimeter=0;" edge="1" parent="1" source="AE-93lYXujNDDO3oy2O7-6" target="AE-93lYXujNDDO3oy2O7-5">
          <mxGeometry relative="1" as="geometry" />
        </mxCell>
        <mxCell id="AE-93lYXujNDDO3oy2O7-6" value="" style="sketch=0;points=[[0,0,0],[0.25,0,0],[0.5,0,0],[0.75,0,0],[1,0,0],[0,1,0],[0.25,1,0],[0.5,1,0],[0.75,1,0],[1,1,0],[0,0.25,0],[0,0.5,0],[0,0.75,0],[1,0.25,0],[1,0.5,0],[1,0.75,0]];outlineConnect=0;fontColor=#232F3E;fillColor=#E7157B;strokeColor=#ffffff;dashed=0;verticalLabelPosition=bottom;verticalAlign=top;align=center;html=1;fontSize=12;fontStyle=0;aspect=fixed;shape=mxgraph.aws4.resourceIcon;resIcon=mxgraph.aws4.api_gateway;" vertex="1" parent="1">
          <mxGeometry x="230" y="190" width="78" height="78" as="geometry" />
        </mxCell>
        <mxCell id="AE-93lYXujNDDO3oy2O7-10" style="edgeStyle=orthogonalEdgeStyle;rounded=0;orthogonalLoop=1;jettySize=auto;html=1;exitX=0.995;exitY=0.63;exitDx=0;exitDy=0;exitPerimeter=0;entryX=0;entryY=0.5;entryDx=0;entryDy=0;entryPerimeter=0;" edge="1" parent="1" source="AE-93lYXujNDDO3oy2O7-9" target="AE-93lYXujNDDO3oy2O7-6">
          <mxGeometry relative="1" as="geometry" />
        </mxCell>
        <mxCell id="AE-93lYXujNDDO3oy2O7-11" style="edgeStyle=orthogonalEdgeStyle;rounded=0;orthogonalLoop=1;jettySize=auto;html=1;exitX=0.995;exitY=0.63;exitDx=0;exitDy=0;exitPerimeter=0;entryX=0;entryY=0.5;entryDx=0;entryDy=0;entryPerimeter=0;" edge="1" parent="1" source="AE-93lYXujNDDO3oy2O7-9" target="AE-93lYXujNDDO3oy2O7-3">
          <mxGeometry relative="1" as="geometry" />
        </mxCell>
        <mxCell id="AE-93lYXujNDDO3oy2O7-9" value="" style="sketch=0;html=1;dashed=0;whitespace=wrap;fillColor=#2875E2;strokeColor=#ffffff;points=[[0.005,0.63,0],[0.1,0.2,0],[0.9,0.2,0],[0.5,0,0],[0.995,0.63,0],[0.72,0.99,0],[0.5,1,0],[0.28,0.99,0]];verticalLabelPosition=bottom;align=center;verticalAlign=top;shape=mxgraph.kubernetes.icon;prIcon=user" vertex="1" parent="1">
          <mxGeometry x="60" y="310" width="50" height="48" as="geometry" />
        </mxCell>
        <mxCell id="AE-93lYXujNDDO3oy2O7-12" value="" style="shape=table;startSize=0;container=1;collapsible=0;childLayout=tableLayout;fontSize=16;" vertex="1" parent="1">
          <mxGeometry x="730" y="130" width="400" height="120" as="geometry" />
        </mxCell>
        <mxCell id="AE-93lYXujNDDO3oy2O7-13" value="" style="shape=tableRow;horizontal=0;startSize=0;swimlaneHead=0;swimlaneBody=0;strokeColor=inherit;top=0;left=0;bottom=0;right=0;collapsible=0;dropTarget=0;fillColor=none;points=[[0,0.5],[1,0.5]];portConstraint=eastwest;fontSize=16;" vertex="1" parent="AE-93lYXujNDDO3oy2O7-12">
          <mxGeometry width="400" height="40" as="geometry" />
        </mxCell>
        <mxCell id="AE-93lYXujNDDO3oy2O7-14" value="&lt;font style=&quot;font-size: 33px;&quot;&gt;ID&lt;/font&gt;" style="shape=partialRectangle;html=1;whiteSpace=wrap;connectable=0;strokeColor=inherit;overflow=hidden;fillColor=none;top=0;left=0;bottom=0;right=0;pointerEvents=1;fontSize=16;" vertex="1" parent="AE-93lYXujNDDO3oy2O7-13">
          <mxGeometry width="133" height="40" as="geometry">
            <mxRectangle width="133" height="40" as="alternateBounds" />
          </mxGeometry>
        </mxCell>
        <mxCell id="AE-93lYXujNDDO3oy2O7-15" value="&lt;font style=&quot;font-size: 31px;&quot;&gt;TITLE&lt;/font&gt;" style="shape=partialRectangle;html=1;whiteSpace=wrap;connectable=0;strokeColor=inherit;overflow=hidden;fillColor=none;top=0;left=0;bottom=0;right=0;pointerEvents=1;fontSize=16;" vertex="1" parent="AE-93lYXujNDDO3oy2O7-13">
          <mxGeometry x="133" width="134" height="40" as="geometry">
            <mxRectangle width="134" height="40" as="alternateBounds" />
          </mxGeometry>
        </mxCell>
        <mxCell id="AE-93lYXujNDDO3oy2O7-16" value="&lt;font style=&quot;font-size: 28px;&quot;&gt;PICTURE&lt;/font&gt;" style="shape=partialRectangle;html=1;whiteSpace=wrap;connectable=0;strokeColor=inherit;overflow=hidden;fillColor=none;top=0;left=0;bottom=0;right=0;pointerEvents=1;fontSize=16;" vertex="1" parent="AE-93lYXujNDDO3oy2O7-13">
          <mxGeometry x="267" width="133" height="40" as="geometry">
            <mxRectangle width="133" height="40" as="alternateBounds" />
          </mxGeometry>
        </mxCell>
        <mxCell id="AE-93lYXujNDDO3oy2O7-17" value="" style="shape=tableRow;horizontal=0;startSize=0;swimlaneHead=0;swimlaneBody=0;strokeColor=inherit;top=0;left=0;bottom=0;right=0;collapsible=0;dropTarget=0;fillColor=none;points=[[0,0.5],[1,0.5]];portConstraint=eastwest;fontSize=16;" vertex="1" parent="AE-93lYXujNDDO3oy2O7-12">
          <mxGeometry y="40" width="400" height="40" as="geometry" />
        </mxCell>
        <mxCell id="AE-93lYXujNDDO3oy2O7-18" value="" style="shape=partialRectangle;html=1;whiteSpace=wrap;connectable=0;strokeColor=inherit;overflow=hidden;fillColor=none;top=0;left=0;bottom=0;right=0;pointerEvents=1;fontSize=16;" vertex="1" parent="AE-93lYXujNDDO3oy2O7-17">
          <mxGeometry width="133" height="40" as="geometry">
            <mxRectangle width="133" height="40" as="alternateBounds" />
          </mxGeometry>
        </mxCell>
        <mxCell id="AE-93lYXujNDDO3oy2O7-19" value="" style="shape=partialRectangle;html=1;whiteSpace=wrap;connectable=0;strokeColor=inherit;overflow=hidden;fillColor=none;top=0;left=0;bottom=0;right=0;pointerEvents=1;fontSize=16;" vertex="1" parent="AE-93lYXujNDDO3oy2O7-17">
          <mxGeometry x="133" width="134" height="40" as="geometry">
            <mxRectangle width="134" height="40" as="alternateBounds" />
          </mxGeometry>
        </mxCell>
        <mxCell id="AE-93lYXujNDDO3oy2O7-20" value="" style="shape=partialRectangle;html=1;whiteSpace=wrap;connectable=0;strokeColor=inherit;overflow=hidden;fillColor=none;top=0;left=0;bottom=0;right=0;pointerEvents=1;fontSize=16;" vertex="1" parent="AE-93lYXujNDDO3oy2O7-17">
          <mxGeometry x="267" width="133" height="40" as="geometry">
            <mxRectangle width="133" height="40" as="alternateBounds" />
          </mxGeometry>
        </mxCell>
        <mxCell id="AE-93lYXujNDDO3oy2O7-21" value="" style="shape=tableRow;horizontal=0;startSize=0;swimlaneHead=0;swimlaneBody=0;strokeColor=inherit;top=0;left=0;bottom=0;right=0;collapsible=0;dropTarget=0;fillColor=none;points=[[0,0.5],[1,0.5]];portConstraint=eastwest;fontSize=16;" vertex="1" parent="AE-93lYXujNDDO3oy2O7-12">
          <mxGeometry y="80" width="400" height="40" as="geometry" />
        </mxCell>
        <mxCell id="AE-93lYXujNDDO3oy2O7-22" value="" style="shape=partialRectangle;html=1;whiteSpace=wrap;connectable=0;strokeColor=inherit;overflow=hidden;fillColor=none;top=0;left=0;bottom=0;right=0;pointerEvents=1;fontSize=16;" vertex="1" parent="AE-93lYXujNDDO3oy2O7-21">
          <mxGeometry width="133" height="40" as="geometry">
            <mxRectangle width="133" height="40" as="alternateBounds" />
          </mxGeometry>
        </mxCell>
        <mxCell id="AE-93lYXujNDDO3oy2O7-23" value="" style="shape=partialRectangle;html=1;whiteSpace=wrap;connectable=0;strokeColor=inherit;overflow=hidden;fillColor=none;top=0;left=0;bottom=0;right=0;pointerEvents=1;fontSize=16;" vertex="1" parent="AE-93lYXujNDDO3oy2O7-21">
          <mxGeometry x="133" width="134" height="40" as="geometry">
            <mxRectangle width="134" height="40" as="alternateBounds" />
          </mxGeometry>
        </mxCell>
        <mxCell id="AE-93lYXujNDDO3oy2O7-24" value="" style="shape=partialRectangle;html=1;whiteSpace=wrap;connectable=0;strokeColor=inherit;overflow=hidden;fillColor=none;top=0;left=0;bottom=0;right=0;pointerEvents=1;fontSize=16;" vertex="1" parent="AE-93lYXujNDDO3oy2O7-21">
          <mxGeometry x="267" width="133" height="40" as="geometry">
            <mxRectangle width="133" height="40" as="alternateBounds" />
          </mxGeometry>
        </mxCell>
      </root>
    </mxGraphModel>
  </diagram>
</mxfile>
